# AST/ASF file generated using VICON BodyLanguage
# -----------------------------------------------
:version 1.10
:name VICON
:units
  mass 1.0
  length 0.45
  angle deg
:documentation
   .ast/.asf automatically generated from VICON data using
   VICON BodyBuilder and BodyLanguage model FoxedUp or BRILLIANT.MOD
:root
   order TX TY TZ RX RY RZ
   axis XYZ
   position 0 0 0  
   orientation 0 0 0 
:bonedata
  begin
     id 1 
     name lhipjoint
     direction 0.710188 -0.616876 0.339259 
     length 2.5669 
     axis 0 0 0  XYZ
  end
  begin
     id 2 
     name lfemur
     direction 0.34202 -0.939693 0  
     length 7.12796  
     axis 0 0 20  XYZ
    dof rx ry rz
    limits (-160.0 20.0)
           (-70.0 70.0)
           (-60.0 70.0)
  end
  begin
     id 3 
     name ltibia
     direction 0.34202 -0.939693 0   
     length 7.58108   
     axis 0 0 20   XYZ
    dof rx
    limits (-10.0 170.0)
  end
  begin
     id 4 
     name lfoot
     direction 0.0669471 -0.183936 0.980656   
     length 2.17365   
     axis -90 7.62852e-016 20   XYZ
    dof rx rz
    limits (-45.0 90.0)
           (-70.0 20.0)
  end
  begin
     id 5 
     name ltoes
     direction 1.53508e-011 -4.21705e-011 1   
     length 1.09427   
     axis -90 7.62852e-016 20   XYZ
    dof rx
    limits (-90.0 20.0)
  end
  begin
     id 6 
     name rhipjoint
     direction -0.700191 -0.625589 0.34405   
     length 2.53115  
     axis 0 0 0  XYZ 
  end
  begin
     id 7 
     name rfemur
     direction -0.34202 -0.939693 0   
     length 7.33006   
     axis 0 0 -20   XYZ
    dof rx ry rz
    limits (-160.0 20.0)
           (-70.0 70.0)
           (-70.0 60.0)
  end
  begin
     id 8 
     name rtibia
     direction -0.34202 -0.939693 0   
     length 7.64926   
     axis 0 0 -20   XYZ
    dof rx
    limits (-10.0 170.0)
 end
 begin
     id 9 
     name rfoot
     direction -0.0688927 -0.189281 0.979503   
     length 2.20493  
     axis -90 -7.62852e-016 -20   XYZ
    dof rx rz
    limits (-45.0 90.0)
           (-20.0 70.0)
  end
  begin
     id 10 
     name rtoes
     direction -1.53567e-011 -4.21933e-011 1   
     length 1.10919   
     axis -90 -7.62852e-016 -20   XYZ
    dof rx
    limits (-90.0 20.0)
  end
  begin
     id 11 
     name lowerback
     direction -0.0167868 0.989873 -0.140959   
     length 2.14596   
     axis 0 0 0   XYZ
    dof rx ry rz
    limits (-20.0 45.0)
           (-30.0 30.0)
           (-30.0 30.0)
  end
  begin
     id 12 
     name upperback
     direction 0.0129109 0.998033 0.0613525   
     length 2.10457   
     axis 0 0 0   XYZ
    dof rx ry rz
    limits (-20.0 45.0)
           (-30.0 30.0)
           (-30.0 30.0)
  end
  begin
     id 13 
     name thorax
     direction 0.0177047 0.991119 0.131797   
     length 2.17652   
     axis 0 0 0   XYZ
    dof rx ry rz
    limits (-20.0 45.0)
           (-30.0 30.0)
           (-30.0 30.0)
  end
  begin
     id 14 
     name lowerneck
     direction -0.0336893 0.997548 0.0613464   
     length 1.8912   
     axis 0 0 0   XYZ
    dof rx ry rz
    limits (-20.0 45.0)
           (-30.0 30.0)
           (-30.0 30.0)
  end
  begin
     id 15 
     name upperneck
     direction 0.0435909 0.997179 -0.0611028   
     length 1.8829   
     axis 0 0 0   XYZ
    dof rx ry rz
    limits (-20.0 45.0)
           (-30.0 30.0)
           (-30.0 30.0)
  end
  begin
     id 16
     name head
     direction 0.0175076 0.999444 -0.0283782  
     length 1.93197  
     axis 0 0 0   XYZ
    dof rx ry rz
    limits (-20.0 45.0)
           (-30.0 30.0)
           (-30.0 30.0)
  end
  begin
     id 17 
     name lclavicle
     direction 0.919164 0.389875 0.0559876  
     length 3.60004  
     axis 0 0 0   XYZ
    dof ry rz
    limits (-20.0 10.0)
           (0.0 20.0)
  end
  begin
     id 18 
     name lhumerus
     direction 1 -4.48958e-011 6.89191e-027   
     length 5.43301   
     axis 180 -30 -90   XYZ
    dof rx ry rz
    limits (-60.0 90.0)
           (-90.0 90.0)
           (-90.0 90.0)
  end
  begin
     id 19
     name lradius
     direction 1 -4.4897e-011 3.24727e-027   
     length 3.15936   
     axis 180 -30 -90   XYZ
    dof rx
    limits (-10.0 170.0)
  end
  begin
     id 20
     name lwrist
     direction 1 -4.4897e-011 9.00228e-027   
     length 1.57968   
     axis -6.29373e-015 90 90   XYZ
    dof ry
    limits (-180.0 0.0)
 end
  begin
     id 21 
     name lhand
     direction 1 -4.48968e-011 1.80042e-026   
     length 0.712827   
     axis -1.14882e-014 90 90   XYZ
    dof rx rz
    limits (-90.0 90.0)
           (-45.0 45.0)
  end
  begin
     id 22 
     name lfingers
     direction 1 -4.49019e-011 3.60267e-026   
     length 0.574699   
     axis -2.29769e-014 90 90   XYZ
    dof rx
    limits (0.0 90.0)
  end
  begin
     id 23
     name lthumb
     direction 0.707107 -6.3498e-011 0.707107   
     length 0.825157   
     axis -90 45 5.37419e-014   XYZ
    dof rx rz
    limits (-45.0 45.0)
           (-45.0 45.0)
  end
  begin
     id 24 
     name rclavicle
     direction -0.890334 0.455305 -0.00132111   
     length 3.51494  
     axis 0 0 0   XYZ 
    dof ry rz
    limits (-10.0 20.0)
           (-20.0 0.0)
  end
  begin
     id 25 
     name rhumerus
     direction -1 -4.48967e-011 5.07175e-028  
     length 5.34194   
     axis 180 30 90   XYZ
    dof rx ry rz
    limits (-90.0 60.0)
           (-90.0 90.0)
           (-90.0 90.0)
  end
  begin
     id 26 
     name rradius
     direction -1 -4.48955e-011 3.30467e-027   
     length 3.19351   
     axis 180 30 90   XYZ
    dof rx
    limits (-10.0 170.0)
  end
  begin
     id 27 
     name rwrist
     direction -1 -4.48968e-011 9.00208e-027   
     length 1.59676   
     axis -6.29373e-015 -90 -90   XYZ
    dof ry
    limits (-180.0 0.0)
  end
  begin
     id 28
     name rhand
     direction -1 -4.49e-011 1.80099e-026   
     length 0.743862   
     axis -1.14882e-014 -90 -90   XYZ
    dof rx rz
    limits (-90.0 90.0)
           (-45.0 45.0)
  end
  begin
     id 29
     name rfingers
     direction -1 -4.49009e-011 3.6023e-026   
     length 0.599721   
     axis -2.29769e-014 -90 -90   XYZ
    dof rx
    limits (0.0 90.0)
  end
  begin
     id 30
     name rthumb
     direction -0.707107 -6.35025e-011 0.707107   
     length 0.861083   
     axis -90 -45 -5.37419e-014   XYZ
    dof rx rz
    limits (-45.0 45.0)
           (-45.0 45.0)
  end
:hierarchy
  begin
    root lhipjoint rhipjoint lowerback
    lhipjoint lfemur
    lfemur ltibia
    ltibia lfoot
    lfoot ltoes
    rhipjoint rfemur
    rfemur rtibia
    rtibia rfoot
    rfoot rtoes
    lowerback upperback
    upperback thorax
    thorax lowerneck lclavicle rclavicle
    lowerneck upperneck
    upperneck head
    lclavicle lhumerus
    lhumerus lradius
    lradius lwrist
    lwrist lhand lthumb
    lhand lfingers
    rclavicle rhumerus
    rhumerus rradius
    rradius rwrist
    rwrist rhand rthumb
    rhand rfingers
  end

#!OML:ASF H:\Martial Arts Walks\Project 1\Capture day 1\Session 1\male.ASF
:FULLY-SPECIFIED
:DEGREES
651
root -1.34814 12.375 -24.5011 4.95535 3.41907 0.336363
lowerback 23.6827 1.85133 -8.66159
upperback 1.43476 0.156841 0.280617
thorax -11.7194 0.548088 5.24201
lowerneck 8.97407 -18.1477 -18.0657
upperneck -1.88299 -26.0536 20.7078
head 3.15149 -13.4507 7.88018
rclavicle -9.93923e-015 -8.34896e-015
rhumerus 89.8213 73.1021 5.06096
rradius 103.416
rwrist -28.0833
rhand 3.4333 -8.26642
rfingers 7.12502
rthumb 28.8745 -36.0517
lclavicle -9.93923e-015 -8.34896e-015
lhumerus -63.0987 -11.0322 94.152
lradius 106.492
lwrist 78.2971
lhand -15.1441 400.233
lfingers 7.12502
lthumb 11.0258 69.9231
rfemur -51.4777 -24.7748 -0.85835
rtibia 97.3777
rfoot -28.5219 -14.7393
rtoes -25.4413
lfemur -64.0953 13.0833 -1.00004
ltibia 88.7461
lfoot -24.7523 2.68243
ltoes -8.45011
652
root -1.33537 12.3768 -24.4697 5.20187 2.68231 -0.371727
lowerback 23.292 1.91949 -8.21097
upperback 1.22792 0.438691 0.650693
thorax -11.7869 0.675786 5.30934
lowerneck 9.22057 -18.2808 -18.1732
upperneck -1.69424 -26.2902 20.5282
head 3.19986 -13.5715 7.82256
rclavicle 1.08338e-014 1.15295e-014
rhumerus 95.6312 74.1395 10.5359
rradius 102.947
rwrist -28.9492
rhand 4.54161 -8.5339
rfingers 7.12502
rthumb 29.9327 -36.1333
lclavicle 1.08338e-014 1.15295e-014
lhumerus -64.6445 -10.3642 95.1982
lradius 107.17
lwrist 79.0045
lhand -16.1972 403.152
lfingers 7.12502
lthumb 10.0099 72.8943
rfemur -52.0805 -25.9255 0.347123
rtibia 97.0799
rfoot -28.9582 -13.6587
rtoes -25.5572
lfemur -64.1339 13.1957 -0.117918
ltibia 89.0419
lfoot -24.7453 3.389
ltoes -8.41799
653
root -1.32203 12.3825 -24.4359 5.4385 1.93611 -0.782557
lowerback 22.9211 2.03452 -7.89829
upperback 1.02917 0.718985 0.832361
thorax -11.8535 0.803191 5.24231
lowerneck 9.36986 -18.4621 -18.1645
upperneck -1.48388 -26.5744 20.4026
head 3.2718 -13.7127 7.74835
rclavicle 8.44835e-015 3.65764e-014
rhumerus 100.926 75.1403 15.4561
rradius 102.345
rwrist -29.4319
rhand 5.76747 -8.69179
rfingers 7.12502
rthumb 31.1017 -36.0738
lclavicle 8.44835e-015 3.65764e-014
lhumerus -65.9609 -10.1798 96.1215
lradius 107.673
lwrist 81.0039
lhand -17.6536 404.76
lfingers 7.12502
lthumb 8.6046 74.5644
rfemur -52.7167 -27.164 1.24501
rtibia 96.8832
rfoot -29.1942 -12.5971
rtoes -25.3254
lfemur -63.8745 13.3149 0.532835
ltibia 89.2921
lfoot -24.8633 4.4377
ltoes -8.81647
654
root -1.30918 12.3877 -24.4 5.81377 1.03416 -0.931079
lowerback 22.3183 2.23463 -7.87299
upperback 0.815885 1.0455 0.931689
thorax -11.8171 0.961435 5.23303
lowerneck 9.46606 -18.647 -18.2044
upperneck -1.29122 -26.8633 20.3344
head 3.36271 -13.8546 7.6884
rclavicle 1.98785e-016 -1.78906e-014
rhumerus 105.739 76.1044 19.9562
rradius 101.761
rwrist -30.3568
rhand 6.94035 -8.9665
rfingers 7.12502
rthumb 32.2189 -36.1283
lclavicle 1.98785e-016 -1.78906e-014
lhumerus -66.956 -10.0832 96.6127
lradius 107.936
lwrist 84.0578
lhand -19.2435 406.091
lfingers 7.12502
lthumb 7.07011 75.9526
rfemur -53.6501 -28.2618 1.88004
rtibia 96.8133
rfoot -29.4879 -11.0549
rtoes -24.9118
lfemur -63.4748 13.6382 0.927424
ltibia 89.4089
lfoot -25.4065 5.15059
ltoes -9.7873
655
root -1.26941 12.3705 -24.335 6.85316 -0.24339 -0.965972
lowerback 20.4094 2.4254 -7.6627
upperback 0.587845 1.49981 0.86852
thorax -11.074 1.13826 4.90512
lowerneck 9.48868 -18.8413 -18.1949
upperneck -1.16877 -27.1431 20.2974
head 3.44077 -13.9901 7.62775
rclavicle 9.44227e-015 1.59028e-014
rhumerus 110.844 76.9181 24.8751
rradius 101.136
rwrist -30.3828
rhand 8.19798 -8.93409
rfingers 7.12502
rthumb 33.4152 -35.8457
lclavicle 9.44227e-015 1.59028e-014
lhumerus -67.6803 -10.1212 96.8241
lradius 107.703
lwrist 85.0356
lhand -16.0842 407.645
lfingers 7.12502
lthumb 10.1189 77.3815
rfemur -55.6585 -29.2643 2.55804
rtibia 96.8618
rfoot -29.4443 -9.40551
rtoes -24.9059
lfemur -63.7119 14.4674 0.938307
ltibia 89.6734
lfoot -26.0164 5.95949
ltoes -11.1011
656
root -1.26072 12.3671 -24.311 6.81825 -0.831832 -0.693512
lowerback 20.4263 2.65087 -7.80265
upperback 0.511332 1.74828 0.772091
thorax -11.2091 1.26546 4.80027
lowerneck 9.22257 -19.1233 -18.1439
upperneck -0.846226 -27.524 20.227
head 3.63108 -14.1562 7.49353
rclavicle -2.08724e-015 7.7526e-015
rhumerus 114.77 77.7735 28.6858
rradius 100.556
rwrist -30.4717
rhand 10.088 -8.56839
rfingers 7.12502
rthumb 35.2098 -35.0752
lclavicle -2.08724e-015 7.7526e-015
lhumerus -68.3463 -10.5336 97.2198
lradius 107.668
lwrist 84.6692
lhand -15.3706 407.848
lfingers 7.12502
lthumb 10.8073 77.5504
rfemur -56.0848 -30.3982 2.42185
rtibia 96.9525
rfoot -29.5682 -7.8781
rtoes -24.7808
lfemur -63.0124 14.5254 0.877668
ltibia 89.6341
lfoot -26.4382 6.66465
ltoes -12.3523
657
root -1.24741 12.3694 -24.2772 6.64228 -1.62344 -0.345391
lowerback 20.4588 2.89428 -8.15365
upperback 0.467671 1.97411 0.712475
thorax -11.3223 1.39296 4.86366
lowerneck 9.2048 -19.2109 -18.125
upperneck -0.901406 -27.6332 20.2301
head 3.63546 -14.2092 7.47419
rclavicle -9.93923e-015 1.23246e-014
rhumerus 120.004 78.4345 33.8773
rradius 100.152
rwrist -30.5503
rhand 11.8498 -8.29243
rfingers 7.12502
rthumb 36.8787 -34.3882
lclavicle -9.93923e-015 1.23246e-014
lhumerus -69.0584 -10.6156 97.7056
lradius 107.901
lwrist 83.2056
lhand -14.3321 406.335
lfingers 7.12502
lthumb 11.8089 75.9818
rfemur -56.363 -31.2221 2.11052
rtibia 97.0456
rfoot -29.6348 -6.57548
rtoes -25.0496
lfemur -62.0396 14.8494 0.69123
ltibia 89.5886
lfoot -26.8881 7.15015
ltoes -13.5622
658
root -1.24113 12.3618 -24.2523 6.62281 -2.24322 0.0652271
lowerback 20.4216 3.06941 -8.61072
upperback 0.335687 2.08838 0.654376
thorax -11.4871 1.47989 5.02302
lowerneck 9.49992 -19.2276 -18.0801
upperneck -1.23192 -27.6521 20.2841
head 3.49702 -14.2402 7.53124
rclavicle -1.71452e-014 1.82882e-014
rhumerus 125.751 79.0598 39.6449
rradius 99.8728
rwrist -30.9263
rhand 13.966 -8.19972
rfingers 7.12502
rthumb 38.8774 -33.7548
lclavicle -1.71452e-014 1.82882e-014
lhumerus -69.7536 -10.5036 98.0158
lradius 108.028
lwrist 82.112
lhand -13.488 405.303
lfingers 7.12502
lthumb 12.6228 74.9017
rfemur -56.9091 -32.0868 1.84402
rtibia 97.243
rfoot -29.6262 -5.48401
rtoes -25.4199
lfemur -61.5017 15.2931 0.34683
ltibia 89.5563
lfoot -27.0772 7.39983
ltoes -14.7367
659
root -1.23922 12.3448 -24.2304 6.6569 -2.75179 0.353515
lowerback 20.3571 3.14806 -9.12023
upperback 0.16012 2.07889 0.721126
thorax -11.676 1.521 5.39187
lowerneck 9.53432 -19.1641 -18.5688
upperneck -1.19367 -27.6453 20.516
head 3.60492 -14.2396 7.64283
rclavicle -2.5345e-014 -5.36719e-015
rhumerus 132.868 79.3195 46.8888
rradius 99.8531
rwrist -31.7778
rhand 14.7744 -8.51116
rfingers 7.12502
rthumb 39.6393 -33.845
lclavicle -2.5345e-014 -5.36719e-015
lhumerus -70.2926 -9.98172 98.0502
lradius 107.769
lwrist 82.2298
lhand -13.0267 405.237
lfingers 7.12502
lthumb 13.0675 74.8079
rfemur -57.4858 -32.8343 1.71315
rtibia 97.5355
rfoot -29.7236 -4.29316
rtoes -25.0492
lfemur -61.2491 15.9296 0.0706685
ltibia 89.6321
lfoot -27.211 7.33861
ltoes -15.6075
660
root -1.24317 12.3289 -24.2123 6.58408 -3.08348 0.502662
lowerback 20.4498 3.22111 -9.41507
upperback 0.0360478 2.09626 0.773928
thorax -11.8901 1.56199 5.61207
lowerneck 9.65107 -19.1679 -18.7033
upperneck -1.32093 -27.6675 20.5333
head 3.57397 -14.2576 7.67566
rclavicle 1.56046e-014 7.95139e-015
rhumerus 138.515 79.5565 52.7146
rradius 99.8937
rwrist -32.828
rhand 15.7458 -8.7333
rfingers 7.12502
rthumb 40.5532 -33.7901
lclavicle 1.56046e-014 7.95139e-015
lhumerus -70.6327 -9.62002 97.9172
lradius 107.385
lwrist 82.8964
lhand -12.6136 406.101
lfingers 7.12502
lthumb 13.4656 75.6456
rfemur -57.8011 -33.4785 1.68902
rtibia 97.8177
rfoot -29.8431 -3.36897
rtoes -24.594
lfemur -61.0295 16.6116 -0.0761437
ltibia 89.7654
lfoot -27.3373 7.09643
ltoes -16.2339
661
root -1.24816 12.3065 -24.1996 6.59865 -3.21573 0.60302
lowerback 20.5224 3.25605 -9.4881
upperback -0.0517851 2.11231 0.766428
thorax -12.0387 1.5831 5.63789
lowerneck 9.64685 -19.2843 -18.4603
upperneck -1.47936 -27.768 20.3536
head 3.48443 -14.306 7.59383
rclavicle -1.3418e-014 1.72943e-014
rhumerus 142.133 79.9292 56.5488
rradius 99.8521
rwrist -33.7275
rhand 16.6533 -8.61225
rfingers 7.12502
rthumb 41.4055 -33.3984
lclavicle -1.3418e-014 1.72943e-014
lhumerus -70.6715 -9.57614 97.7466
lradius 106.887
lwrist 83.8272
lhand -12.0044 407.109
lfingers 7.12502
lthumb 14.0528 76.6142
rfemur -58.1513 -34.2255 1.76232
rtibia 98.1136
rfoot -29.9914 -2.61299
rtoes -23.9441
lfemur -61.1343 17.2178 -0.232056
ltibia 89.9854
lfoot -27.3387 6.7594
ltoes -16.9176
662
root -1.24782 12.2843 -24.1748 6.62714 -3.46783 0.527719
lowerback 20.3588 3.24738 -9.49662
upperback -0.133529 2.12501 0.85993
thorax -12.0474 1.59731 5.747
lowerneck 9.75379 -19.2798 -18.6331
upperneck -1.50895 -27.7931 20.3602
head 3.48825 -14.3231 7.62122
rclavicle 1.06847e-014 -6.95746e-016
rhumerus 146.415 80.022 61.1063
rradius 99.8971
rwrist -34.6319
rhand 17.611 -8.80476
rfingers 7.12502
rthumb 42.3034 -33.2923
lclavicle 1.06847e-014 -6.95746e-016
lhumerus -70.7267 -9.31966 97.6349
lradius 106.528
lwrist 84.4107
lhand -11.1073 407.386
lfingers 7.12502
lthumb 14.9171 76.8287
rfemur -58.4759 -34.7101 2.08763
rtibia 98.3206
rfoot -30.1681 -2.38098
rtoes -23.474
lfemur -61.197 18.0282 -0.217299
ltibia 90.2711
lfoot -27.4176 6.38146
ltoes -17.4916
663
root -1.24319 12.2634 -24.1427 6.75008 -3.7678 0.458055
lowerback 19.8959 3.18173 -9.48318
upperback -0.228032 2.09753 0.934754
thorax -11.8914 1.58453 5.8394
lowerneck 9.86095 -19.2657 -18.9211
upperneck -1.31151 -27.842 20.2832
head 3.56653 -14.3462 7.62214
rclavicle 4.64659e-015 -1.43125e-014
rhumerus 150.946 79.9995 65.8507
rradius 99.812
rwrist -35.2165
rhand 17.8347 -9.23417
rfingers 7.12502
rthumb 42.5129 -33.65
lclavicle 4.64659e-015 -1.43125e-014
lhumerus -70.8294 -9.03157 97.5291
lradius 106.252
lwrist 84.7098
lhand -10.0212 406.964
lfingers 7.12502
lthumb 15.9632 76.3267
rfemur -58.9192 -35.1324 2.52708
rtibia 98.4704
rfoot -30.3254 -2.55297
rtoes -23.2375
lfemur -61.3413 18.9373 -0.278148
ltibia 90.6063
lfoot -27.4942 6.08143
ltoes -18.1362
664
root -1.23827 12.2403 -24.1133 6.86116 -4.03343 0.374963
lowerback 19.5202 3.12706 -9.38613
upperback -0.294211 2.09032 0.970866
thorax -11.7497 1.57375 5.83207
lowerneck 9.85501 -19.2648 -18.9632
upperneck -1.15373 -27.8549 20.1185
head 3.59626 -14.3461 7.57151
rclavicle -2.33075e-014 -1.80894e-014
rhumerus 153.848 80.0493 68.9289
rradius 99.4957
rwrist -35.6103
rhand 18.7128 -9.43123
rfingers 7.12502
rthumb 43.3341 -33.558
lclavicle -2.33075e-014 -1.80894e-014
lhumerus -70.7856 -8.95487 97.4159
lradius 105.956
lwrist 84.7582
lhand -8.85009 406.223
lfingers 7.12502
lthumb 17.0907 75.4917
rfemur -59.3163 -35.5167 2.97483
rtibia 98.6187
rfoot -30.5603 -2.66753
rtoes -22.5608
lfemur -61.5145 19.7704 -0.327708
ltibia 90.9601
lfoot -27.5979 5.8304
ltoes -18.5663
665
root -1.23175 12.2263 -24.0798 6.80528 -4.50718 0.379148
lowerback 19.3328 3.20258 -9.34959
upperback -0.34863 2.21075 0.922638
thorax -11.7233 1.62668 5.72184
lowerneck 9.86609 -19.3168 -18.7445
upperneck -1.09155 -27.8956 19.8563
head 3.54896 -14.3611 7.47263
rclavicle 2.2413e-014 1.07344e-014
rhumerus 156.106 80.1711 71.318
rradius 98.9546
rwrist -36.058
rhand 19.1968 -9.23982
rfingers 7.12502
rthumb 43.7862 -33.202
lclavicle 2.2413e-014 1.07344e-014
lhumerus -70.7389 -9.09822 97.2881
lradius 105.622
lwrist 84.4782
lhand -7.65607 405.782
lfingers 7.12502
lthumb 18.2397 74.9464
rfemur -59.4402 -35.5549 3.16188
rtibia 98.6987
rfoot -30.8646 -2.4302
rtoes -21.0823
lfemur -61.2851 20.6371 -0.398569
ltibia 91.2606
lfoot -27.8082 5.6934
ltoes -18.9494
